<svg width="512" height="512" viewBox="0 0 512 512" xmlns="http://www.w3.org/2000/svg">
  <!-- Background to match your PWA theme color -->
  <rect width="512" height="512" rx="112" fill="#0066cc"/>
  
  <!-- Main Book Cover -->
  <rect x="130" y="100" width="252" height="312" rx="16" fill="#ffffff" />
  
  <!-- Spine detailing -->
  <path d="M 130 116 Q 130 100 146 100 L 170 100 L 170 412 L 146 412 Q 130 412 130 396 Z" fill="#f0f0f0" />
  <line x1="170" y1="100" x2="170" y2="412" stroke="#e0e0e0" stroke-width="2" />
  
  <!-- Pages Edge (Right side) -->
  <path d="M 374 104 L 390 104 Q 398 104 398 112 L 398 400 Q 398 408 390 408 L 374 408 Z" fill="#e8e8e8"/>

  <!-- Center Cross -->
  <rect x="260" y="160" width="32" height="140" rx="6" fill="#0066cc" />
  <rect x="226" y="200" width="100" height="32" rx="6" fill="#0066cc" />
  
  <!-- Red Bookmark Ribbon extending from the bottom -->
  <path d="M 260 412 L 260 470 L 276 454 L 292 470 L 292 412 Z" fill="#d9534f" />
</svg>
